# xmcd
#
# Track frame offsets:
#	150
#	21889
#	45955
#	71288
#	91479
#	112866
#	134408
#	152706
#	178111
#	203981
#	225412
#	246238
#	262772
#
# Disc length: 3837 seconds
#
# Revision: 0
# Processed by: cddbd v1.5PL3 Copyright (c) Steve Scherf et al.
# Submitted via: dBpowerAMP V4.0
#
DISCID=a00efb0d
DTITLE=The Rise - Descent
DYEAR=2000
DGENRE=D&B
TTITLE0=lost
TTITLE1=tear up
TTITLE2=pitch
TTITLE3=ohms law
TTITLE4=MPJ
TTITLE5=hey micky
TTITLE6=clock shadow
TTITLE7=snowdonia
TTITLE8=tecnovort
TTITLE9=slight reprise
TTITLE10=one way in no way out
TTITLE11=left us
TTITLE12=it´s over
EXTD=
EXTT0=
EXTT1=
EXTT2=
EXTT3=
EXTT4=
EXTT5=
EXTT6=
EXTT7=
EXTT8=
EXTT9=
EXTT10=
EXTT11=
EXTT12=
PLAYORDER=
